<?xml version="1.0" encoding="UTF-8"?>
<svg xmlns="http://www.w3.org/2000/svg" xmlns:xlink="http://www.w3.org/1999/xlink" width="74px" height="74px" viewBox="0 0 74 49" version="1.1">
<defs>
<linearGradient id="linear0" gradientUnits="userSpaceOnUse" x1="-37.6312" y1="-37.5455" x2="11.3667" y2="11.412" gradientTransform="matrix(0.60977,0,0,-0.605153,43.798552,17.774809)">
<stop offset="0" style="stop-color:rgb(100%,83.529412%,12.941176%);stop-opacity:1;"/>
<stop offset="0.05" style="stop-color:rgb(100%,83.529412%,12.941176%);stop-opacity:1;"/>
<stop offset="0.501119" style="stop-color:rgb(96.078431%,0%,0%);stop-opacity:1;"/>
<stop offset="0.95" style="stop-color:rgb(72.54902%,0%,70.588235%);stop-opacity:1;"/>
<stop offset="0.950079" style="stop-color:rgb(72.54902%,0%,70.588235%);stop-opacity:1;"/>
<stop offset="1" style="stop-color:rgb(72.54902%,0%,70.588235%);stop-opacity:1;"/>
</linearGradient>
<linearGradient id="linear1" gradientUnits="userSpaceOnUse" x1="0.4867" y1="0.536" x2="49.5047" y2="49.554" gradientTransform="matrix(0.60952,0,0,-0.605401,20.555556,40.860758)">
<stop offset="0" style="stop-color:rgb(100%,83.529412%,12.941176%);stop-opacity:1;"/>
<stop offset="0.05" style="stop-color:rgb(100%,83.529412%,12.941176%);stop-opacity:1;"/>
<stop offset="0.501119" style="stop-color:rgb(96.078431%,0%,0%);stop-opacity:1;"/>
<stop offset="0.95" style="stop-color:rgb(72.54902%,0%,70.588235%);stop-opacity:1;"/>
<stop offset="0.950079" style="stop-color:rgb(72.54902%,0%,70.588235%);stop-opacity:1;"/>
<stop offset="1" style="stop-color:rgb(72.54902%,0%,70.588235%);stop-opacity:1;"/>
</linearGradient>
<linearGradient id="linear2" gradientUnits="userSpaceOnUse" x1="-12.5688" y1="-12.5305" x2="36.4315" y2="36.4816" gradientTransform="matrix(0.609447,0,0,-0.605474,28.519966,32.950161)">
<stop offset="0" style="stop-color:rgb(100%,83.529412%,12.941176%);stop-opacity:1;"/>
<stop offset="0.05" style="stop-color:rgb(100%,83.529412%,12.941176%);stop-opacity:1;"/>
<stop offset="0.501119" style="stop-color:rgb(96.078431%,0%,0%);stop-opacity:1;"/>
<stop offset="0.95" style="stop-color:rgb(72.54902%,0%,70.588235%);stop-opacity:1;"/>
<stop offset="0.950079" style="stop-color:rgb(72.54902%,0%,70.588235%);stop-opacity:1;"/>
<stop offset="1" style="stop-color:rgb(72.54902%,0%,70.588235%);stop-opacity:1;"/>
</linearGradient>
</defs>
<g id="surface1">
<path style=" stroke:none;fill-rule:nonzero;fill:url(#linear0);" d="M 47.753906 15.78125 C 47.753906 14.695312 46.867188 13.820312 45.777344 13.820312 C 44.6875 13.820312 43.800781 14.695312 43.800781 15.78125 C 43.800781 16.863281 44.6875 17.738281 45.777344 17.738281 C 46.867188 17.738281 47.753906 16.863281 47.753906 15.78125 "/>
<path style=" stroke:none;fill-rule:nonzero;fill:url(#linear1);" d="M 50.382812 31.097656 C 50.3125 32.691406 50.042969 33.558594 49.820312 34.132812 C 49.519531 34.894531 49.164062 35.4375 48.585938 36.011719 C 48.011719 36.582031 47.464844 36.933594 46.699219 37.230469 C 46.117188 37.453125 45.246094 37.722656 43.640625 37.796875 C 41.90625 37.871094 41.394531 37.886719 36.996094 37.886719 C 32.605469 37.886719 32.089844 37.871094 30.355469 37.796875 C 28.75 37.722656 27.882812 37.453125 27.300781 37.230469 C 26.53125 36.933594 25.988281 36.582031 25.410156 36.011719 C 24.832031 35.4375 24.476562 34.894531 24.179688 34.132812 C 23.957031 33.558594 23.683594 32.691406 23.617188 31.097656 C 23.53125 29.378906 23.515625 28.859375 23.515625 24.503906 C 23.515625 20.136719 23.53125 19.621094 23.617188 17.898438 C 23.683594 16.308594 23.957031 15.441406 24.179688 14.863281 C 24.476562 14.101562 24.832031 13.558594 25.410156 12.988281 C 25.988281 12.417969 26.53125 12.0625 27.300781 11.765625 C 27.882812 11.542969 28.75 11.277344 30.355469 11.203125 C 32.089844 11.125 32.605469 11.105469 36.996094 11.105469 C 41.394531 11.105469 41.90625 11.125 43.640625 11.203125 C 45.246094 11.277344 46.117188 11.542969 46.699219 11.765625 C 47.464844 12.0625 48.011719 12.417969 48.585938 12.988281 C 49.164062 13.558594 49.519531 14.101562 49.820312 14.863281 C 50.042969 15.441406 50.3125 16.308594 50.382812 17.898438 C 50.464844 19.621094 50.484375 20.136719 50.484375 24.503906 C 50.484375 28.859375 50.464844 29.378906 50.382812 31.097656 Z M 53.34375 17.765625 C 53.265625 16.027344 52.988281 14.835938 52.578125 13.800781 C 52.160156 12.726562 51.601562 11.816406 50.683594 10.90625 C 49.769531 10 48.855469 9.441406 47.773438 9.023438 C 46.726562 8.621094 45.53125 8.34375 43.777344 8.265625 C 42.027344 8.183594 41.464844 8.167969 36.996094 8.167969 C 32.535156 8.167969 31.96875 8.183594 30.21875 8.265625 C 28.46875 8.34375 27.277344 8.621094 26.222656 9.023438 C 25.144531 9.441406 24.230469 10 23.316406 10.90625 C 22.398438 11.816406 21.839844 12.726562 21.417969 13.800781 C 21.011719 14.835938 20.734375 16.027344 20.652344 17.765625 C 20.574219 19.507812 20.554688 20.0625 20.554688 24.503906 C 20.554688 28.9375 20.574219 29.492188 20.652344 31.234375 C 20.734375 32.96875 21.011719 34.160156 21.417969 35.199219 C 21.839844 36.269531 22.398438 37.183594 23.316406 38.089844 C 24.230469 38.996094 25.144531 39.558594 26.222656 39.976562 C 27.277344 40.378906 28.46875 40.652344 30.21875 40.734375 C 31.96875 40.8125 32.535156 40.832031 36.996094 40.832031 C 41.464844 40.832031 42.027344 40.8125 43.777344 40.734375 C 45.53125 40.652344 46.726562 40.378906 47.773438 39.976562 C 48.855469 39.558594 49.769531 38.996094 50.683594 38.089844 C 51.601562 37.183594 52.160156 36.269531 52.578125 35.199219 C 52.988281 34.160156 53.265625 32.96875 53.34375 31.234375 C 53.425781 29.492188 53.445312 28.9375 53.445312 24.503906 C 53.445312 20.0625 53.425781 19.507812 53.34375 17.765625 Z M 53.34375 17.765625 "/>
<path style=" stroke:none;fill-rule:nonzero;fill:url(#linear2);" d="M 36.996094 29.941406 C 33.972656 29.941406 31.515625 27.507812 31.515625 24.503906 C 31.515625 21.492188 33.972656 19.054688 36.996094 19.054688 C 40.023438 19.054688 42.484375 21.492188 42.484375 24.503906 C 42.484375 27.507812 40.023438 29.941406 36.996094 29.941406 Z M 36.996094 16.109375 C 32.332031 16.109375 28.554688 19.871094 28.554688 24.503906 C 28.554688 29.128906 32.332031 32.886719 36.996094 32.886719 C 41.660156 32.886719 45.445312 29.128906 45.445312 24.503906 C 45.445312 19.871094 41.660156 16.109375 36.996094 16.109375 Z M 36.996094 16.109375 "/>
</g>
</svg>
